<svg width="234" height="52" viewBox="0 0 234 52" fill="none" xmlns="http://www.w3.org/2000/svg">
<path d="M16.6662 39.8615C16.667 40.7198 16.4244 41.5608 15.9666 42.2872C15.5087 43.0137 14.8542 43.596 14.0786 43.9669C13.3031 44.3378 12.4382 44.482 11.584 44.383C10.7298 44.284 9.92112 43.9457 9.25141 43.4073C8.5817 42.8689 8.07831 42.1524 7.79946 41.3405C7.52061 40.5286 7.47766 39.6546 7.67559 38.8194C7.87351 37.9841 8.30422 37.2219 8.91793 36.6207C9.53165 36.0195 10.3033 35.6039 11.1437 35.4219V32.4932C9.72617 32.6807 8.39278 33.2719 7.30306 34.196C6.21334 35.1201 5.41344 36.3379 4.99905 37.7038C4.58465 39.0696 4.57331 40.5258 4.96638 41.8979C5.35945 43.2701 6.14028 44.5001 7.21548 45.441C8.29067 46.3819 9.61469 46.9936 11.0292 47.2032C12.4436 47.4127 13.8886 47.2112 15.1913 46.6226C16.494 46.034 17.5992 45.0833 18.3747 43.8843C19.1501 42.6853 19.5631 41.2886 19.5642 39.8615C19.5618 38.899 19.3756 37.9457 19.0154 37.0528L16.4632 38.5167C16.5989 38.9521 16.6673 39.4056 16.6662 39.8615Z" fill="#909395"/>
<path d="M13.0859 27.8753V30.7797C14.3714 30.9169 15.6136 31.3228 16.7315 31.9709C17.8494 32.619 18.8181 33.4948 19.5744 34.5412L22.0908 33.0895C21.0731 31.6063 19.7367 30.3685 18.1789 29.4662C16.6211 28.5638 14.8811 28.0197 13.0859 27.8735V27.8753Z" fill="#909395"/>
<path d="M21.3296 39.8621C21.3287 41.6376 20.8124 43.3748 19.8433 44.8636C18.8741 46.3525 17.4936 47.5293 15.8685 48.2518C14.2434 48.9742 12.4434 49.2114 10.6862 48.9346C8.92896 48.6578 7.28968 47.8788 5.96658 46.692C4.64347 45.5051 3.69319 43.9612 3.23063 42.2468C2.76807 40.5323 2.81305 38.7209 3.36011 37.0315C3.90717 35.342 4.93289 33.8469 6.31326 32.7269C7.69364 31.6069 9.36954 30.9099 11.1384 30.7203V27.875C8.79529 28.0712 6.56015 28.944 4.70586 30.3869C2.85157 31.8298 1.45837 33.7804 0.696382 36.0004C-0.0656074 38.2204 -0.163416 40.6138 0.414903 42.8883C0.993221 45.1629 2.22263 47.2202 3.95303 48.809C5.68343 50.3978 7.83992 51.4494 10.1592 51.8353C12.4785 52.2213 14.8602 51.9249 17.0135 50.9823C19.1668 50.0398 20.9986 48.4919 22.285 46.5277C23.5715 44.5634 24.2571 42.2678 24.2581 39.9212C24.253 38.1356 23.8454 36.374 23.0656 34.767L20.5396 36.2074C21.0502 37.3576 21.3171 38.6006 21.3235 39.8586L21.3296 39.8621Z" fill="#909395"/>
<path d="M15.4944 36.8259L18.0352 35.3619C17.4412 34.581 16.698 33.9253 15.8484 33.4329C14.9989 32.9405 14.06 32.6211 13.0859 32.4932V35.421C14.0159 35.6278 14.8573 36.1189 15.4944 36.8259Z" fill="#909395"/>
<path d="M27.2919 22.4116L24.8112 20.8999C23.9841 22.556 23.5552 24.3818 23.5586 26.2323C23.556 28.0491 23.9636 29.8432 24.7511 31.4813L27.2771 30.0286C26.7267 28.834 26.4417 27.5346 26.4417 26.2197C26.4417 24.9048 26.7267 23.6054 27.2771 22.4108L27.2919 22.4116Z" fill="#909395"/>
<path d="M35.665 21.6936C36.4177 21.6937 37.1586 21.8804 37.8211 22.237C38.4837 22.5936 39.0471 23.1089 39.4607 23.7365C39.8744 24.3641 40.1253 25.0844 40.1911 25.8328C40.2568 26.5811 40.1352 27.3341 39.8373 28.024C39.5393 28.7138 39.0743 29.319 38.4841 29.7852C37.8938 30.2514 37.1968 30.5639 36.4556 30.6947C35.7144 30.8256 34.9522 30.7706 34.2375 30.5348C33.5229 30.2989 32.8781 29.8896 32.3612 29.3436L29.8203 30.8075C30.7751 32.0198 32.0849 32.9048 33.5673 33.3395C35.0497 33.7742 36.6309 33.7368 38.0911 33.2326C39.5512 32.7284 40.8175 31.7825 41.7138 30.5265C42.61 29.2705 43.0917 27.7669 43.0917 26.2249C43.0917 24.6829 42.61 23.1793 41.7138 21.9233C40.8175 20.6673 39.5512 19.7213 38.0911 19.2172C36.6309 18.713 35.0497 18.6756 33.5673 19.1103C32.0849 19.5449 30.7751 20.43 29.8203 21.6423L32.3246 23.1662C32.7485 22.7027 33.2642 22.332 33.839 22.0776C34.4139 21.8232 35.0353 21.6907 35.6642 21.6883L35.665 21.6936Z" fill="#909395"/>
<path d="M35.6661 14.15C33.735 14.1508 31.832 14.6125 30.1161 15.4968C28.4002 16.381 26.9212 17.662 25.8024 19.2329L28.2352 20.7325C29.3909 19.1832 31.0064 18.0367 32.8521 17.4558C34.6979 16.875 36.6802 16.8894 38.5173 17.4969C40.3544 18.1045 41.953 19.2743 43.086 20.8402C44.2191 22.4062 44.8289 24.2886 44.8289 26.2201C44.8289 28.1516 44.2191 30.034 43.086 31.6C41.953 33.1659 40.3544 34.3357 38.5173 34.9433C36.6802 35.5508 34.6979 35.5652 32.8521 34.9844C31.0064 34.4035 29.3909 33.257 28.2352 31.7077L25.7188 33.1603C26.9161 34.8557 28.5306 36.2149 30.4067 37.1072C32.2829 37.9995 34.3577 38.3947 36.4312 38.2549C38.5048 38.1151 40.5074 37.4449 42.2463 36.3089C43.9852 35.1728 45.4018 33.6092 46.3597 31.7685C47.3177 29.9278 47.7848 27.872 47.716 25.7989C47.6472 23.7259 47.0449 21.7054 45.967 19.932C44.8892 18.1585 43.3721 16.6918 41.5617 15.6731C39.7513 14.6543 37.7087 14.1179 35.6304 14.1152L35.6661 14.15Z" fill="#909395"/>
<path d="M28.8189 29.1486L31.3597 27.6847C31.2004 27.2169 31.1197 26.7261 31.1211 26.232C31.1176 25.7634 31.19 25.2972 31.3353 24.8516L28.8189 23.3276C28.4254 24.2477 28.2227 25.2378 28.2227 26.2381C28.2227 27.2385 28.4254 28.2285 28.8189 29.1486Z" fill="#909395"/>
<path d="M7.56416 12.0908C7.62455 10.9271 8.1303 9.83084 8.97704 9.02841C9.82377 8.22599 10.9469 7.7786 12.1145 7.7786C13.2822 7.7786 14.4053 8.22599 15.252 9.02841C16.0987 9.83084 16.6045 10.9271 16.6649 12.0908C16.6683 12.5897 16.5837 13.0852 16.4149 13.5548L22.939 17.4945C23.7852 15.8189 24.2225 13.9673 24.2151 12.0908C24.2165 9.74367 23.533 7.44692 22.2479 5.48111C20.9629 3.51531 19.132 1.96556 16.9789 1.02119C14.8259 0.0768323 12.4438 -0.221269 10.1238 0.163306C7.80373 0.547881 5.64614 1.59849 3.91455 3.18678C2.18297 4.77507 0.952361 6.83228 0.373054 9.10713C-0.206253 11.382 -0.109164 13.776 0.652434 15.9967C1.41403 18.2173 2.80718 20.1686 4.6617 21.612C6.51622 23.0555 8.75181 23.9287 11.0954 24.1249V16.5183C10.0921 16.2871 9.19694 15.7235 8.55568 14.9195C7.91443 14.1155 7.56492 13.1185 7.56416 12.0908Z" fill="#0091EA"/>
<path d="M21.9236 19.1595L15.4116 15.2197C14.7846 15.8754 13.9741 16.3274 13.0859 16.5167V24.1233C14.8316 23.9853 16.5264 23.4698 18.0525 22.6127C19.5786 21.7555 20.8995 20.5772 21.9236 19.1595Z" fill="#0091EA"/>
<path d="M86.1852 15.7212H82.2969V36.1946H86.1852V15.7212Z" fill="#414041"/>
<path d="M117.008 15.3883C115.612 15.3636 114.226 15.6216 112.932 16.1468C111.639 16.672 110.466 17.4534 109.484 18.4439C108.501 19.4345 107.731 20.6134 107.218 21.9096C106.705 23.2058 106.461 24.5924 106.5 25.9854C106.5 28.7667 107.607 31.4342 109.578 33.4009C111.548 35.3676 114.221 36.4724 117.008 36.4724C119.795 36.4724 122.468 35.3676 124.438 33.4009C126.409 31.4342 127.516 28.7667 127.516 25.9854C127.555 24.5927 127.31 23.2067 126.797 21.9109C126.284 20.6152 125.514 19.4367 124.532 18.4465C123.55 17.4564 122.377 16.6753 121.084 16.1502C119.79 15.6252 118.404 15.3672 117.008 15.3918V15.3883ZM117.008 32.7313C115.654 32.7907 114.313 32.4439 113.158 31.7357C112.003 31.0274 111.087 29.9902 110.528 28.7576C109.969 27.525 109.793 26.1536 110.022 24.8201C110.251 23.4867 110.875 22.2522 111.814 21.276C112.752 20.2997 113.962 19.6263 115.288 19.3426C116.613 19.0589 117.993 19.1779 119.25 19.6843C120.508 20.1906 121.584 21.0611 122.341 22.1836C123.098 23.306 123.5 24.629 123.497 25.9819C123.546 26.858 123.414 27.7348 123.109 28.5577C122.804 29.3806 122.333 30.1321 121.724 30.7653C121.115 31.3984 120.382 31.8997 119.571 32.238C118.76 32.5762 117.888 32.7441 117.008 32.7313Z" fill="#0091EA"/>
<path d="M138.426 23.8033H135.003C134.7 23.8249 134.397 23.7842 134.111 23.6836C133.825 23.5831 133.563 23.4248 133.342 23.2188C133.12 23.0127 132.943 22.7632 132.822 22.4859C132.701 22.2086 132.638 21.9094 132.638 21.6069C132.638 21.3045 132.701 21.0053 132.822 20.728C132.943 20.4507 133.12 20.2012 133.342 19.9951C133.563 19.789 133.825 19.6308 134.111 19.5302C134.397 19.4297 134.7 19.3889 135.003 19.4106H142.66V15.7212H134.669C133.107 15.7212 131.608 16.3407 130.503 17.4434C129.398 18.5461 128.777 20.0418 128.777 21.6013C128.777 23.1608 129.398 24.6564 130.503 25.7591C131.608 26.8619 133.107 27.4814 134.669 27.4814H137.961C138.288 27.4682 138.615 27.5225 138.92 27.6407C139.225 27.759 139.503 27.9388 139.736 28.1689C139.969 28.3989 140.151 28.6743 140.273 28.978C140.394 29.2816 140.452 29.607 140.442 29.9337C140.42 30.5748 140.149 31.1823 139.686 31.6269C139.222 32.0716 138.604 32.3183 137.961 32.3148H129.612V36.2076H138.148C139.81 36.2051 141.402 35.5445 142.577 34.371C143.751 33.1975 144.41 31.6069 144.41 29.9485C144.404 28.3498 143.777 26.8158 142.66 25.67C141.543 24.5242 140.024 23.8561 138.422 23.8068L138.426 23.8033Z" fill="#414041"/>
<path d="M155.851 15.3883C154.455 15.3637 153.069 15.6218 151.775 16.147C150.482 16.6723 149.309 17.4538 148.327 18.4443C147.345 19.4347 146.574 20.6137 146.061 21.9098C145.549 23.206 145.305 24.5924 145.344 25.9854C145.322 27.3731 145.577 28.7514 146.096 30.039C146.615 31.3267 147.387 32.4979 148.366 33.4838C149.345 34.4697 150.511 35.2503 151.797 35.7799C153.082 36.3095 154.461 36.5773 155.851 36.5676C157.264 36.5709 158.661 36.2789 159.954 35.7105L160.241 35.5679V31.2795L159.457 31.7559C158.381 32.415 157.14 32.7537 155.878 32.7322C154.151 32.6305 152.527 31.8739 151.34 30.6171C150.153 29.3603 149.491 27.6983 149.491 25.971C149.491 24.2437 150.153 22.5817 151.34 21.3249C152.527 20.0681 154.151 19.3115 155.878 19.2099C157.141 19.1926 158.383 19.5355 159.457 20.1983L160.241 20.6747V16.3898L159.954 16.2472C158.661 15.6787 157.264 15.3868 155.851 15.3901V15.3883Z" fill="#414041"/>
<path d="M174.194 24.0293H166.955V15.7212H163.066V36.2068H166.955V27.6874H174.194V36.2068H178.083V15.7212H174.195L174.194 24.0293Z" fill="#414041"/>
<path d="M190.797 15.3883C189.401 15.3637 188.014 15.6218 186.721 16.147C185.428 16.6723 184.254 17.4538 183.272 18.4443C182.29 19.4347 181.519 20.6137 181.007 21.9098C180.494 23.206 180.25 24.5924 180.289 25.9854C180.289 28.7667 181.396 31.4341 183.367 33.4008C185.338 35.3676 188.01 36.4724 190.797 36.4724C193.584 36.4724 196.257 35.3676 198.227 33.4008C200.198 31.4341 201.305 28.7667 201.305 25.9854C201.344 24.5927 201.099 23.2066 200.586 21.9109C200.074 20.6152 199.303 19.4367 198.321 18.4465C197.339 17.4564 196.166 16.6752 194.873 16.1502C193.58 15.6252 192.193 15.3672 190.798 15.3918L190.797 15.3883ZM190.797 32.7313C189.442 32.7912 188.101 32.4448 186.945 31.7368C185.79 31.0287 184.873 29.9914 184.314 28.7587C183.755 27.526 183.578 26.1543 183.807 24.8206C184.037 23.4869 184.661 22.2522 185.6 21.2758C186.538 20.2994 187.749 19.626 189.074 19.3425C190.4 19.059 191.781 19.1783 193.038 19.6851C194.295 20.1919 195.371 21.0629 196.128 22.1859C196.884 23.3088 197.287 24.6322 197.283 25.9854C197.332 26.8614 197.2 27.7382 196.895 28.5612C196.59 29.3841 196.118 30.1356 195.509 30.7687C194.901 31.4019 194.168 31.9032 193.357 32.2414C192.546 32.5797 191.673 32.7476 190.794 32.7348L190.797 32.7313Z" fill="#414041"/>
<path d="M207.789 15.3883C206.394 15.3641 205.007 15.6225 203.714 16.148C202.422 16.6735 201.249 17.455 200.267 18.4455C199.285 19.4359 198.515 20.6147 198.003 21.9106C197.49 23.2065 197.246 24.5927 197.285 25.9853C197.285 28.7667 198.392 31.4341 200.363 33.4008C202.334 35.3675 205.006 36.4724 207.793 36.4724C210.58 36.4724 213.253 35.3675 215.223 33.4008C217.194 31.4341 218.301 28.7667 218.301 25.9853C218.34 24.5921 218.096 23.2053 217.583 21.909C217.07 20.6127 216.299 19.4336 215.316 18.4432C214.334 17.4527 213.16 16.6714 211.866 16.1465C210.573 15.6215 209.186 15.363 207.789 15.3883ZM207.789 32.7312C206.435 32.7931 205.092 32.4484 203.936 31.7418C202.779 31.0351 201.861 29.9988 201.3 28.7665C200.74 27.5342 200.562 26.1625 200.789 24.8283C201.017 23.4941 201.64 22.2585 202.578 21.281C203.516 20.3035 204.726 19.6289 206.051 19.3441C207.377 19.0594 208.758 19.1776 210.016 19.6835C211.274 20.1894 212.351 21.0598 213.108 22.1824C213.866 23.305 214.269 24.6284 214.266 25.9818C214.315 26.8569 214.183 27.7326 213.879 28.5547C213.574 29.3768 213.104 30.1277 212.497 30.7607C211.889 31.3936 211.158 31.8952 210.348 32.2342C209.538 32.5732 208.667 32.7424 207.789 32.7312Z" fill="#414041"/>
<path d="M224.396 32.3749V15.71H220.508V34.2074C220.508 34.4669 220.559 34.7238 220.659 34.9636C220.758 35.2033 220.904 35.4211 221.088 35.6046C221.272 35.7881 221.49 35.9337 221.73 36.033C221.97 36.1323 222.228 36.1834 222.488 36.1834H233.376V32.3584L224.396 32.3749Z" fill="#414041"/>
<path d="M80.1423 22.3872C80.1328 20.5645 79.399 18.82 78.102 17.5368C76.805 16.2536 75.0507 15.5365 73.2244 15.543H65.4477C64.9954 15.543 64.5616 15.7223 64.2417 16.0415C63.9219 16.3607 63.7422 16.7937 63.7422 17.2451V36.2068H67.5948V28.9697H69.6104C75.1564 29.041 75.7644 34.0283 75.7644 36.1851H79.6283C79.7636 33.2139 78.752 30.3041 76.8018 28.0551C77.7974 27.4739 78.6272 26.6478 79.212 25.6555C79.7967 24.6633 80.117 23.5381 80.1423 22.3872ZM67.6166 19.4115H73.3054C74.0141 19.3985 74.7032 19.6441 75.2434 20.1022C75.7835 20.5602 76.1376 21.1993 76.2391 21.8995C76.2934 22.3023 76.2609 22.712 76.1439 23.1013C76.0268 23.4906 75.8279 23.8505 75.5603 24.1569C75.2928 24.4633 74.9628 24.7093 74.5924 24.8782C74.222 25.0472 73.8198 25.1354 73.4125 25.1368H67.5922L67.6166 19.4115Z" fill="#414041"/>
<path d="M105.368 22.3872C105.359 20.5645 104.625 18.82 103.328 17.5368C102.031 16.2536 100.276 15.5365 98.4501 15.543H90.6621C90.4387 15.543 90.2175 15.5871 90.0113 15.6728C89.805 15.7585 89.6178 15.8841 89.4604 16.0423C89.303 16.2005 89.1785 16.3882 89.0942 16.5947C89.0098 16.8011 88.9672 17.0222 88.9688 17.2451V36.2068H92.8327V28.9697H94.8484C100.407 29.041 101.014 34.0283 101.014 36.1851H104.878C105.009 33.2146 103.998 30.3066 102.052 28.0551C103.041 27.4693 103.864 26.6417 104.444 25.6503C105.024 24.659 105.342 23.5366 105.367 22.3889L105.368 22.3872ZM92.8327 19.4115H98.5216C99.2345 19.4013 99.9268 19.6506 100.469 20.1128C101.011 20.5751 101.366 21.2185 101.467 21.923C101.519 22.3272 101.483 22.7377 101.362 23.1269C101.242 23.5162 101.039 23.8752 100.768 24.1798C100.497 24.4845 100.164 24.7277 99.7907 24.8932C99.4176 25.0588 99.0134 25.1427 98.6052 25.1394H92.797L92.8327 19.4115Z" fill="#414041"/>
</svg>
